<?xml version="1.0" encoding="utf-8"?>
<!-- Generator: Adobe Illustrator 23.0.3, SVG Export Plug-In . SVG Version: 6.00 Build 0)  -->
<svg version="1.1" id="Layer_1" xmlns="http://www.w3.org/2000/svg" xmlns:xlink="http://www.w3.org/1999/xlink" x="0px" y="0px"
	 viewBox="0 0 1920 1920" style="enable-background:new 0 0 1920 1920;" xml:space="preserve">
<style type="text/css">
	.st0{fill:#6551FF;}
	.st1{fill:#FFFFFF;}
</style>
<path class="st0" d="M1540.3,1854.2H379.7c-173.4,0-313.9-140.5-313.9-313.9V379.7c0-173.4,140.5-313.9,313.9-313.9h1160.7
	c173.4,0,313.9,140.5,313.9,313.9v1160.7C1854.2,1713.7,1713.7,1854.2,1540.3,1854.2z"/>
<g transform="translate(0.000000,1920.000000) scale(0.100000,-0.100000)">
	<path class="st1" d="M8102.8,15033.2c-257.7-15.9-471.7-109.3-642.6-280.2c-105.3-106-174.2-212.7-238.5-371.6
		c-45.7-113.9-59-196.8-69.6-450.5c-6-134.5-18.5-2147-19.9-3093.7v-285.5l66.9-70.9c97.4-103.3,149.7-138.5,281.5-186.2l67.6-24.5
		l4-200.1c2-110,4.6-640.6,6-1179.2l1.3-978.5l-1182.5,0.7c-1108.3,0-1450.8,4-1479.3,15.9c-7.9,3.3-10.6,8.6-7.9,15.9
		c2.6,6,6,197.4,7.9,426l4,414.7l66.9,28.5c96.7,40.4,191.5,89.4,234.5,121.9c20.5,15.2,69.6,58.3,108.6,95.4l71.5,67.6l-4.6,1085.1
		l-4,1084.5l128.5,15.2c198.1,23.2,326.6,60.9,483.6,140.4c174.2,88.8,335.2,231.9,435.2,386.9c73.5,113.9,141.1,290.8,154.4,404.1
		c11.9,100.7,4,351.1-12.6,417.4c-51.7,203.4-163,398.1-308.7,543.2c-184.2,183.5-436.6,305.4-726.1,351.1
		c-93.4,14.6-347.8,21.2-427.3,10.6c-78.2-10.6-205.4-52.3-294.1-96.7c-247.8-124.5-426-342.5-510.1-625.4
		c-28.5-94.7-33.8-144.4-40.4-381.6c-8.6-292.8-22.5-2775.7-17.2-3096.4c4.6-303.4-1.3-279.6,84.8-362.4
		c59-57,121.9-98.7,220.6-145.7l74.9-35.8l4-140.4c2-77.5,4.6-276.2,6.6-440.5l2.6-300.1h-617.4H3398l-41.7-37.8
		c-50.3-45.7-59.6-66.2-59.6-131.2c0-65.6,9.3-85.5,60.3-131.2l42.4-37.8H9600h6200.7l42.4,37.8c51,45.7,60.3,65.6,60.3,131.2
		c0,60.3-11.3,85.5-57.6,130.5l-31.8,30.5l-773.1,5.3l-773.8,4.6l0.7,944.7c0,910.2,6,1389.2,15.9,1413.7c2.6,6,9.9,11.3,15.9,11.3
		c18.5,0,126.5,55.6,179.5,92.7c27.2,19.2,82.1,68.2,121.9,108.6l72.2,73.5l-4.6,927.4c-6.6,1334.2-16.6,2370.3-23.8,2526.6
		c-7.3,147.1-19.9,223.3-53.7,325.3c-159.7,485.6-604.2,755.2-1141.4,692.3c-543.9-63.6-947.3-365-1096.4-818.1
		c-34.4-106-41.1-149.7-45-318c-4-176.2,2.7-232.5,39.1-343.8c30.5-91.4,109.3-245.8,160.3-312.7
		c213.3-281.5,490.2-427.3,912.9-480.9l91.4-11.3v-1079.2v-1078.5l27.2-40.4c41.1-59.6,67.6-82.8,161.6-142.4
		c122.6-76.2,171.6-100,253.7-121.2l27.8-7.3l-1.3-1180.5l-2-1180.5l-1173.9-2l-1173.9-1.3l3.3,349.1c1.3,192.8,4.6,391.5,6.6,442.5
		l4,92.7l67.6,27.8c137.1,57.6,221.3,120.6,282.9,212l33.1,48.4l-6.6,1787.3l-6,1786.7l-30.5,97.4
		c-64.9,208-126.5,329.2-233.2,457.1c-124.5,149.7-324.6,267.6-528,311.4c-59.6,12.6-88.1,14.6-243.1,14.6
		c-234.5,0.7-312.7-11.3-500.2-75.5c-224.6-77.5-400.8-195.4-535.9-357.1c-131.8-157.7-212.7-323.3-250.4-513.4
		c-19.2-96.1-21.2-298.8-4-391.5c33.1-174.2,100.7-327.9,202.7-460.4c53-68.2,186.8-202.1,225.2-225.2c15.2-9.3,42.4-25.8,59.6-37.8
		c49-33.1,137.1-76.8,219.9-110c95.4-37.8,255-73.5,410.1-93.4l63.6-7.9l4-145.1c2.6-80.2,4.6-569.1,5.3-1086.4l1.3-940.7l70.9-64.9
		c39.1-35.8,102-86.1,140.4-111.3c81.5-54.3,192.1-110.6,227.2-116.6c15.9-2,27.8-9.3,33.1-17.9c6-10.6,8.6-121.9,9.9-442.5l2-429.3
		H9606.6H7847.8v1052c0,579,2,1111,4.6,1183.2l4,129.8l93.4,45.7c117.9,57.6,178.9,98.7,266.3,178.9l68.9,62.9V11656V12747l45,4
		c357.1,35.1,589.6,126.5,811.5,318.6c157,135.8,309.4,398.1,335.9,577.7c5.3,34.4,6.6,125.9,5.3,264.3l-2,211.3l-27.8,79.5
		c-68.2,200.7-149.7,325.9-312,480.9c-117.3,112.6-223.9,181.5-371,240.5C8555.3,15010.7,8331.4,15047.1,8102.8,15033.2z
		 M13783.5,14745.7c145.1-29.1,256.4-87.4,354.4-185.5c90.1-89.4,151-192.8,207.4-354.4l27.2-76.2l7.3-1156
		c11.3-1892,9.3-2230.5-13.9-2321.3c-10.6-43.1-28.5-58.3-95.4-82.8c-114.6-42.4-212-35.1-351.1,26.5
		c-79.5,35.1-97.4,54.3-112,117.9c-19.2,85.5-23.8,320.6-23.8,1327.6v991.7h-127.2c-393.5,0-595.6,58.3-805.6,233.2
		c-214,178.9-320.6,520-250.4,803.6c72.2,288.2,265,495.5,568.4,608.8c78.8,29.1,200.1,59.6,280.2,69.6c33.1,4,68.9,8.6,79.5,9.9
		C13567.5,14763.6,13734.4,14755.6,13783.5,14745.7z M8430.8,14735.7c414-76.8,714.8-355.7,779.1-722.1
		c15.9-94.1,9.9-258.4-13.2-347.8c-53.7-206.7-216.6-406.8-414.7-509.4c-161.6-84.1-298.8-115.3-549.8-126.5
		c-49-2-118.6-5.3-153.7-7.3l-64.9-4v-1165.3v-1164.6l-50.3-39.1c-57-45-129.8-82.8-178.2-92.7c-57-11.9-143.8-15.9-188.1-8.6
		c-41.1,6.6-129.2,50.3-168.9,83.5l-15.9,13.2l5.3,1735.7l6,1735.7l30.5,86.1c122.6,343.2,285.5,494.9,583.6,543.2
		C8124,14759.6,8330.1,14755,8430.8,14735.7z M5386.7,13277.7c310-26.5,612.8-180.2,771.8-391.5c45-59.6,102.7-172.9,128.5-251.7
		c21.9-66.9,30.5-134.5,30.5-232.5c0-253.7-87.4-456.4-261-608.1c-192.1-168.3-355.1-226.6-677-244.4c-72.2-4-162.3-8.6-199.4-10.6
		l-68.2-4v-1170.6V9193.6l-49.7-35.1c-97.4-67.6-188.1-100-284.9-100c-90.8,0-193.4,33.1-234.5,75.5l-21.2,21.9l-6.6,241.1
		c-9.3,298.8-3.3,2662.4,6.6,2973.8c8.6,253.7,13.9,303.4,43.7,393.5c39.7,122.6,92.1,211.3,176.9,299.4
		c135.8,141.1,306.1,210,545.2,220.6C5298.6,13284.3,5343,13281.6,5386.7,13277.7z M11134.3,13267.7
		c119.2-20.5,223.9-62.3,297.4-118.6c87.4-66.9,176.2-178.2,232.5-289.5c87.4-174.2,87.4-177.5,88.1-2095.4
		c0.7-1563.4,0.7-1569.4-28.5-1626.3c-28.5-55.6-211.3-95.4-335.2-72.2c-47.7,8.6-72.2,20.5-163.6,80.2l-71.5,46.4v1171.2v1171.2
		l-67.6,4c-37.8,2-130.5,7.3-206,11.3c-76.2,3.3-165.6,10.6-198.7,15.9c-169.6,25.2-352.4,116.6-483.6,241.1
		c-106,101.4-174.9,206.7-221.3,341.8l-25.2,72.9v139.1c0,118.6,2.6,150.4,15.2,214c74.9,371,405.4,638,862.5,696.2
		C10905.7,13281,11066.7,13279,11134.3,13267.7z"/>
	<path class="st1" d="M12983.9,14185.9c-11.9-6.6-36.4-27.2-55-45l-33.1-31.8v-235.2v-235.2l38.4-37.1
		c43.1-41.7,70.9-58.3,100.7-58.3c29.8,0,57.6,16.6,101.4,58.3l37.8,37.1v235.8v235.8l-27.8,27.2
		C13081.2,14199.8,13031.6,14215.1,12983.9,14185.9z"/>
	<path class="st1" d="M8705,14181.9c-13.9-9.3-38.4-29.1-53.7-44.4l-28.5-27.2v-235.8V13638l41.7-40.4
		c59.6-57,112.6-67.6,166.9-34.4c41.1,25.2,49,39.1,55.6,102.7c10.6,95.4,15.2,318.6,8.6,395.5c-6.6,82.8-9.9,88.1-69.6,117.9
		C8775.2,14204.5,8740.1,14205.8,8705,14181.9z"/>
	<path class="st1" d="M5806.7,12692c-43.1-22.5-70.2-55.6-76.8-94.1c-2.6-17.2-5.3-117.9-5.3-223.9c0-191.5,0-192.1,16.6-225.2
		c18.5-37.1,59.6-71.5,99.4-83.5c22.5-6.6,29.1-6,54.3,7.3c15.9,7.9,42.4,24.5,59,37.1l31.1,22.5l4.6,129.8
		c6.6,176.9,2,337.2-11.3,367.7c-12.6,28.5-33.1,49-66.2,66.2C5879.6,12712.6,5843.8,12711.3,5806.7,12692z"/>
	<path class="st1" d="M10340,12688.1c-33.8-17.2-51.7-40.4-60.3-79.5c-4-16.6-7.3-119.2-7.3-232.5c0-239.1,0-240.5,57-282.2
		c44.4-33.1,70.9-39.1,105.3-25.2c97.4,41.1,113.3,101.4,103.3,393.5c-6,177.5-8.6,187.5-55,218
		C10445.3,12705.3,10381,12709.3,10340,12688.1z"/>
	<path class="st1" d="M4542.1,6598.7v-282.9h-159h-159v-291.5v-291.5h158.3h158.3l4-322.6c7.9-593.6,13.9-665.8,66.2-789
		c83.5-199.4,247.1-347.8,457.8-417.4c104.7-34.4,136.5-37.8,337.9-37.8c230.5,0.7,306.1,8.6,408.1,43.1
		c70.2,23.8,165,62.9,165,67.6c0,9.3-166.3,488.9-179.5,517.4c-9.9,22.5-28.5,23.2-70.9,2c-45.7-22.5-94.1-32.5-163.6-31.8
		c-84.1,0-126.5,13.2-165.6,51c-44.4,43.1-61.6,86.1-69.6,171.6c-8.6,86.8-11.9,696.9-4.6,718.1c3.3,8.6,13.9,18.5,23.2,22.5
		c9.9,3.3,117.9,9.3,246.4,11.9c125.9,3.3,229.2,6,230.5,6c0.7,0.7,1.3,127.2,1.3,281.5v280.2l-120.6,4
		c-66.9,2.6-179.5,6.6-251.1,8.6l-129.8,4.6l-3.3,270.3c-1.3,149.1-4.6,272.3-6.6,274.3c-1.3,2-176.9,5.3-388.2,7.9l-385.6,4V6598.7
		z"/>
	<path class="st1" d="M7207.8,6421.8c-283.5-19.2-565.1-148.4-764.5-351.1c-139.8-141.8-243.1-331.9-280.9-517.4
		c-39.1-190.8-23.2-460.4,36.4-633.3c135.8-393.5,498.8-675.7,963.2-747.9c91.4-13.9,408.7-15.9,510.1-3.3
		c177.5,22.5,367.7,92.1,516.7,188.8c49,32.5,182.2,139.8,182.2,147.7c0,5.3-165.6,180.9-290.8,308.7
		c-64.3,64.9-113.9,110.6-121.2,110.6s-44.4-20.5-83.5-45.7c-137.8-88.1-188.1-106-336.5-120.6c-89.4-8.6-203.4-4-267.6,11.3
		c-56.3,12.6-137.8,53-194.8,96.1c-77.5,59-127.2,129.2-145.7,206.7l-4,17.9h791h791.6l7.3,36.4c11.3,54.3,9.9,265.6-2.6,347.1
		c-33.8,221.3-110,397.5-241.1,559.1c-147.7,182.2-402.8,327.3-647.2,369c-64.9,11.3-298.1,29.1-334.5,25.2
		C7286,6427.1,7248.3,6424.5,7207.8,6421.8z M7509.9,5852.8c55-17.2,102.7-47.7,153.7-97.4c47.7-46.4,72.2-81.5,98-137.1
		c22.5-48.4,28.5-77.5,20.5-90.1c-10.6-15.9-154.4-21.9-494.2-19.2c-276.9,2.6-321.3,4-343.2,13.9c-13.2,6-26.5,15.2-29.1,21.2
		c-2,6.6,10.6,41.1,33.1,84.8c58.3,117.3,122.6,179.5,222.6,214c68.2,23.8,108,28.5,206,25.8
		C7443.7,5867.4,7478.1,5862.7,7509.9,5852.8z"/>
	<path class="st1" d="M14088.2,6424.5c-189.5-17.2-374.3-89.4-514.1-202.1c-35.8-28.5-67.6-49.7-70.9-46.4
		c-2.6,2.6-7.3,53.7-9.3,112.6l-4,106.7h-367h-366.3v-1103v-1103h393.5h394.2l2.6,594.9c2,395.5,6,608.8,10.6,637.3
		c11.9,68.9,33.1,123.2,67.6,174.9c39.1,58.3,91.4,104,158.3,135.8l49.7,23.8h139.1c134.5,0,139.8-0.7,165.6-15.9
		c75.5-44.4,129.2-102.7,152.4-168.3c35.8-98,43.1-240.5,43.1-877.1v-505.5h388.2h388.9l-4.6,591.6c-6,775.1-11.9,928.8-40.4,1040.7
		c-13.3,51-62.9,168.9-93.4,219.9c-102,172.9-327.9,325.9-545.9,370.3C14377.7,6421.8,14152.4,6430.5,14088.2,6424.5z"/>
	<path class="st1" d="M8661.3,6390.7l-37.8-2.6l32.5-94.1c17.2-51.7,94.7-271.6,172.2-488.2c76.8-216.6,204-574.4,282.9-795
		c78.2-220.6,175.6-494.9,216.6-609.5l74.2-208.7h353.8c194.8,0,365.7,2.6,378.9,5.3c29.1,6,2-60.9,220.6,547.9
		c182.8,511.4,204,567.7,218,586.9c8.6,11.3,10.6,11.3,19.9,2.6c5.3-5.3,96.7-261.7,202.7-569.1
		c105.3-307.4,193.4-561.1,195.4-563.1c9.9-9.9,122.6-13.2,424-13.2l331.2-0.7l95.4,267c52.3,146.4,137.1,384.2,187.5,528
		c51,143.8,117.9,330.6,149.1,414c31.1,84.1,84.1,231.2,117.9,327.9c33.8,96.7,99.4,283.5,145.7,416
		c46.4,131.8,82.8,241.8,80.8,243.8c-8,7.9-185.5,10.6-422,6l-255-4.6l-82.1-236.5c-261-753.2-351.1-1006.9-370.3-1044l-9.9-19.2
		l-24.5,62.9c-37.8,96.7-181.5,514.1-308,893.7l-113.9,341.2l-334.5,2c-314.7,1.3-335.2,0.7-339.8-9.9
		c-6-15.9-287.5-817.5-355.7-1012.2c-67.6-194.1-90.8-255-98-255c-3.3,0-10.6,7.9-15.9,18.5c-13.2,26.5-126.5,351.1-251.1,720.1
		c-168.3,498.2-176.2,519.4-195.4,532c-15.9,9.9-48.4,11.3-332.6,11.9C8840.8,6392.7,8681.8,6392,8661.3,6390.7z"/>
</g>
</svg>
